<?xml version="1.0" standalone="no"?>
<svg xmlns="http://www.w3.org/2000/svg" viewBox="0 0 53.056 61.264" width="53.056" height="61.264"><polygon fill="#10b981" points="53.056,15.316 53.056,45.948 26.528,61.264 0,45.948 0,15.316 26.528,0" mask="url(#initialsInInvertedHexagonTextMask)"></polygon><mask id="initialsInInvertedHexagonTextMask"><rect x="0" y="0" width="100%" height="100%" fill="white"></rect><path fill="black" fill-rule="nonzero" d="M1.90 18L5.35 1.97Q3.84 2.02 3.04 3.12Q2.23 4.22 2.23 6.94L2.23 6.94Q2.23 7.82 2.40 8.17Q2.57 8.52 2.57 8.57L2.57 8.57Q1.27 8.57 0.64 8.03Q0 7.49 0 6.24L0 6.24Q0 4.54 0.84 3.13Q1.68 1.73 3.52 0.86Q5.35 0 8.18 0L8.18 0Q8.76 0 9.72 0.12L9.72 0.12Q11.45 0.29 12.17 0.29L12.17 0.29Q13.44 0.29 14.33 0L14.33 0Q14.26 0.22 14.06 0.95Q13.87 1.68 13.38 2.20Q12.89 2.71 12.05 2.88L12.05 2.88Q10.63 2.88 8.69 2.42L8.69 2.42L7.68 7.20L11.18 7.20L10.80 8.98L7.30 8.98L5.35 18L1.90 18ZM14.57 18L17.98 2.11L17.69 2.11Q15.55 2.11 14.36 3.18Q13.18 4.25 13.18 6.96L13.18 6.96Q13.18 7.85 13.34 8.20Q13.51 8.54 13.51 8.59L13.51 8.59Q12.22 8.59 11.58 8.05Q10.94 7.51 10.94 6.26L10.94 6.26Q10.94 4.56 11.78 3.16Q12.62 1.75 14.46 0.89Q16.30 0.02 19.13 0.02L19.13 0.02Q20.71 0.02 22.54 0.31L22.54 0.31Q24.07 0.58 25.27 0.58L25.27 0.58Q26.81 0.58 28.06 0.07L28.06 0.07Q28.01 1.63 27.26 2.38Q26.52 3.12 25.06 3.12L25.06 3.12Q24.29 3.12 23.52 3Q22.75 2.88 21.34 2.59L21.34 2.59L18.02 18L14.57 18Z" transform="translate(12.5, 21.632)" color="black"></path></mask></svg>